<mxfile host="app.diagrams.net" modified="2024-03-18T01:04:50.970Z" agent="Mozilla/5.0 (Windows NT 10.0; Win64; x64) AppleWebKit/537.36 (KHTML, like Gecko) Chrome/122.0.0.0 Safari/537.36" version="24.0.7" etag="InY_qesrK0sedAVRgdaF" type="device">
  <diagram name="Página-1" id="Ssh_H4rSlqZM4hCht0bW">
    <mxGraphModel dx="2074" dy="1132" grid="1" gridSize="10" guides="1" tooltips="1" connect="1" arrows="1" fold="1" page="1" pageScale="1" pageWidth="827" pageHeight="1169" math="0" shadow="0">
      <root>
        <mxCell id="0" />
        <mxCell id="1" parent="0" />
        <mxCell id="b27rScqWXiwdGxOjmq14-1" value="Usuário" style="shape=umlActor;verticalLabelPosition=bottom;verticalAlign=top;html=1;outlineConnect=0;" parent="1" vertex="1">
          <mxGeometry x="124" y="240" width="120" height="250" as="geometry" />
        </mxCell>
        <mxCell id="b27rScqWXiwdGxOjmq14-5" value="" style="whiteSpace=wrap;html=1;aspect=fixed;" parent="1" vertex="1">
          <mxGeometry x="294" y="120" width="410" height="410" as="geometry" />
        </mxCell>
        <mxCell id="b27rScqWXiwdGxOjmq14-2" value="Gerenciar lista de tarefas" style="ellipse;whiteSpace=wrap;html=1;" parent="1" vertex="1">
          <mxGeometry x="374" y="150" width="120" height="80" as="geometry" />
        </mxCell>
        <mxCell id="b27rScqWXiwdGxOjmq14-3" value="Gerenciar atividade" style="ellipse;whiteSpace=wrap;html=1;" parent="1" vertex="1">
          <mxGeometry x="418" y="270" width="120" height="80" as="geometry" />
        </mxCell>
        <mxCell id="b27rScqWXiwdGxOjmq14-4" value="Alterar status da atividade" style="ellipse;whiteSpace=wrap;html=1;" parent="1" vertex="1">
          <mxGeometry x="384" y="400" width="120" height="80" as="geometry" />
        </mxCell>
        <mxCell id="5" value="" style="endArrow=none;html=1;entryX=0;entryY=1;entryDx=0;entryDy=0;" parent="1" source="b27rScqWXiwdGxOjmq14-1" target="b27rScqWXiwdGxOjmq14-2" edge="1">
          <mxGeometry width="50" height="50" relative="1" as="geometry">
            <mxPoint x="244" y="320" as="sourcePoint" />
            <mxPoint x="294" y="270" as="targetPoint" />
          </mxGeometry>
        </mxCell>
        <mxCell id="6" value="" style="endArrow=none;html=1;entryX=0;entryY=0.5;entryDx=0;entryDy=0;exitX=1;exitY=0.3333333333333333;exitDx=0;exitDy=0;exitPerimeter=0;" parent="1" source="b27rScqWXiwdGxOjmq14-1" target="b27rScqWXiwdGxOjmq14-3" edge="1">
          <mxGeometry width="50" height="50" relative="1" as="geometry">
            <mxPoint x="254" y="332.5912157588864" as="sourcePoint" />
            <mxPoint x="401.57359312880726" y="228.2842712474619" as="targetPoint" />
          </mxGeometry>
        </mxCell>
        <mxCell id="7" value="" style="endArrow=none;html=1;entryX=0;entryY=0;entryDx=0;entryDy=0;exitX=1;exitY=0.3333333333333333;exitDx=0;exitDy=0;exitPerimeter=0;" parent="1" source="b27rScqWXiwdGxOjmq14-1" target="b27rScqWXiwdGxOjmq14-4" edge="1">
          <mxGeometry width="50" height="50" relative="1" as="geometry">
            <mxPoint x="264" y="342.5912157588864" as="sourcePoint" />
            <mxPoint x="411.57359312880726" y="238.2842712474619" as="targetPoint" />
          </mxGeometry>
        </mxCell>
      </root>
    </mxGraphModel>
  </diagram>
</mxfile>
